/* XPM */
static char * keymon_xpm[] = {
"32 32 332 2",
"  	c None",
". 	c #FFFFFF",
"+ 	c #DFDFDF",
"@ 	c #CBCBCA",
"# 	c #E5E4E4",
"$ 	c #F2F1F1",
"% 	c #E9E8E8",
"& 	c #B6B6B5",
"* 	c #908F8F",
"= 	c #F2F1F0",
"- 	c #F2F0EF",
"; 	c #F3F3F2",
"> 	c #F9F9F8",
", 	c #F5F4F4",
"' 	c #F6F5F5",
") 	c #F7F6F6",
"! 	c #D6D5D5",
"~ 	c #E7E6E5",
"{ 	c #D5D1D0",
"] 	c #CBC0BF",
"^ 	c #CDC3C2",
"/ 	c #9F9D9C",
"( 	c #7E7E7D",
"_ 	c #D2D1D0",
": 	c #CECDCC",
"< 	c #D0CECD",
"[ 	c #DFDEDC",
"} 	c #F7F6F5",
"| 	c #D8D7D7",
"1 	c #C6C5C4",
"2 	c #C1C0BF",
"3 	c #C2C1C1",
"4 	c #C2C1C0",
"5 	c #C2C2C1",
"6 	c #C3C2C1",
"7 	c #C3C1C1",
"8 	c #C8C8C8",
"9 	c #DCDCDB",
"0 	c #EEEEED",
"a 	c #B7B3B2",
"b 	c #734C4C",
"c 	c #703838",
"d 	c #703636",
"e 	c #764344",
"f 	c #A8A2A2",
"g 	c #949697",
"h 	c #B6B6B6",
"i 	c #B6B7B7",
"j 	c #BABBBA",
"k 	c #B9BAB9",
"l 	c #A09F9F",
"m 	c #DCDBDB",
"n 	c #F0EEEE",
"o 	c #B9B7B7",
"p 	c #AFAEAE",
"q 	c #B1B1B1",
"r 	c #AFAFAF",
"s 	c #AFAFB0",
"t 	c #B0AFB0",
"u 	c #B0B0B0",
"v 	c #B2B2B1",
"w 	c #B3B2B2",
"x 	c #B3B3B3",
"y 	c #B4B4B4",
"z 	c #B4B5B5",
"A 	c #B5B5B5",
"B 	c #BFBEBD",
"C 	c #DEDEDD",
"D 	c #867776",
"E 	c #7E3F3F",
"F 	c #702D2D",
"G 	c #6F2D2D",
"H 	c #763C3C",
"I 	c #A39C9E",
"J 	c #72767B",
"K 	c #C4C7C9",
"L 	c #C8CBCB",
"M 	c #D5D7D7",
"N 	c #DEDEDE",
"O 	c #A2A2A1",
"P 	c #EAE9E9",
"Q 	c #ACABAB",
"R 	c #ADADAE",
"S 	c #B3B3B4",
"T 	c #A9A9AA",
"U 	c #ABABAC",
"V 	c #ACACAD",
"W 	c #ADADAF",
"X 	c #B2B2B2",
"Y 	c #B5B5B6",
"Z 	c #B7B7B7",
"` 	c #B8B8BA",
" .	c #BBBBBC",
"..	c #C1C1C3",
"+.	c #AEAEAF",
"@.	c #D5D5D4",
"#.	c #978282",
"$.	c #773636",
"%.	c #702E2E",
"&.	c #979092",
"*.	c #52575C",
"=.	c #BFC3C5",
"-.	c #D4D5D6",
";.	c #DADBDB",
">.	c #E2E2E1",
",.	c #747473",
"'.	c #E9EAE8",
").	c #AEAEAD",
"!.	c #A3A3A4",
"~.	c #A7A7A8",
"{.	c #AAAAAB",
"].	c #B4B4B5",
"^.	c #B6B6B7",
"/.	c #C0C0C1",
"(.	c #CECECF",
"_.	c #ADADAD",
":.	c #D2D2D1",
"<.	c #998584",
"[.	c #763536",
"}.	c #958E91",
"|.	c #505459",
"1.	c #BEC2C4",
"2.	c #787878",
"3.	c #EAEAE9",
"4.	c #AEADAD",
"5.	c #B3B2B3",
"6.	c #A8A8A9",
"7.	c #B0B0B1",
"8.	c #B7B7B8",
"9.	c #BABABB",
"0.	c #BDBDBD",
"a.	c #C1C1C1",
"b.	c #CCCCCD",
"c.	c #9A8685",
"d.	c #783939",
"e.	c #723131",
"f.	c #713030",
"g.	c #773E3F",
"h.	c #9B9597",
"i.	c #5E6367",
"j.	c #C1C4C6",
"k.	c #C8CACB",
"l.	c #DADBDA",
"m.	c #B2B2B3",
"n.	c #9B9B9C",
"o.	c #999999",
"p.	c #ACACAC",
"q.	c #BCBCBD",
"r.	c #BDBDBE",
"s.	c #C4C4C4",
"t.	c #D1D1D0",
"u.	c #ACA5A3",
"v.	c #AC9290",
"w.	c #A58C8A",
"x.	c #A28989",
"y.	c #9F8A8A",
"z.	c #B0B0B2",
"A.	c #969A9E",
"B.	c #BEC2C3",
"C.	c #C1C4C4",
"D.	c #CACCCC",
"E.	c #CFD0CE",
"F.	c #D8D9D7",
"G.	c #AEAEAE",
"H.	c #9F9F9F",
"I.	c #4A4A4A",
"J.	c #363636",
"K.	c #797978",
"L.	c #C2C2C2",
"M.	c #C1C1C2",
"N.	c #C3C3C4",
"O.	c #C7C7C7",
"P.	c #CDCDCD",
"Q.	c #D0CFCE",
"R.	c #BDBDBC",
"S.	c #E0E0DE",
"T.	c #D2D4D3",
"U.	c #CCCECF",
"V.	c #C5C9CB",
"W.	c #C0C5C8",
"X.	c #C6C9CB",
"Y.	c #CBCECF",
"Z.	c #D1D2D2",
"`.	c #D6D7D6",
" +	c #DEDFDE",
".+	c #797979",
"++	c #EAEAE8",
"@+	c #B7B8B7",
"#+	c #7D7D7D",
"$+	c #424242",
"%+	c #2C2C2C",
"&+	c #5E5E5E",
"*+	c #C5C5C6",
"=+	c #C7C7C8",
"-+	c #C9C9CA",
";+	c #CCCDCD",
">+	c #ADACAD",
",+	c #BEBEBD",
"'+	c #E5E5E4",
")+	c #DDDEDD",
"!+	c #D7D9D9",
"~+	c #D0D2D4",
"{+	c #C9CDCF",
"]+	c #C3C8CC",
"^+	c #C9CCCF",
"/+	c #CFD1D3",
"(+	c #E2E2E2",
"_+	c #EBEAE8",
":+	c #B9B9BA",
"<+	c #C0C0C0",
"[+	c #B1B1B2",
"}+	c #555555",
"|+	c #3B3B3C",
"1+	c #2A2A2A",
"2+	c #414141",
"3+	c #919192",
"4+	c #CACACB",
"5+	c #CDCDCE",
"6+	c #B1B0B1",
"7+	c #ADACAC",
"8+	c #D0D2D3",
"9+	c #CFD1D2",
"0+	c #EBE9E8",
"a+	c #BBBABB",
"b+	c #C2C2C3",
"c+	c #A1A1A2",
"d+	c #3C3C3C",
"e+	c #444445",
"f+	c #404040",
"g+	c #393939",
"h+	c #6D6D6D",
"i+	c #C8C8C9",
"j+	c #D1D1D1",
"k+	c #EAE9E8",
"l+	c #949494",
"m+	c #7C7C7C",
"n+	c #8A8A8A",
"o+	c #6A6A6A",
"p+	c #6C6C6C",
"q+	c #C6C6C6",
"r+	c #D0D0D0",
"s+	c #D4D4D3",
"t+	c #B3B2B1",
"u+	c #BEBEBE",
"v+	c #BFBFBF",
"w+	c #CECECE",
"x+	c #D2D2D3",
"y+	c #D4D4D4",
"z+	c #D6D6D6",
"A+	c #AEADAE",
"B+	c #CBCBCB",
"C+	c #BFBFC0",
"D+	c #C3C3C3",
"E+	c #C5C5C5",
"F+	c #D5D5D5",
"G+	c #D8D8D8",
"H+	c #DBDBDB",
"I+	c #D1D0CF",
"J+	c #777776",
"K+	c #C0C1C1",
"L+	c #CCCCCC",
"M+	c #C4C4C5",
"N+	c #C9C9C9",
"O+	c #CFCFCF",
"P+	c #D2D2D2",
"Q+	c #DCDDDD",
"R+	c #CDD0D1",
"S+	c #C0C3C5",
"T+	c #BABFC3",
"U+	c #C1C5C7",
"V+	c #CED0D1",
"W+	c #DBDCDB",
"X+	c #DEDFDD",
"Y+	c #6F6F6E",
"Z+	c #E9E9E9",
"`+	c #B1B0B0",
" @	c #BABABA",
".@	c #C6C6C7",
"+@	c #BBBBBB",
"@@	c #ABABAB",
"#@	c #ACACAB",
"$@	c #E9E8E7",
"%@	c #A7A6A6",
"&@	c #E1E2E2",
"*@	c #D3D5D6",
"=@	c #C7CACC",
"-@	c #C4C8CB",
";@	c #C8CBCD",
">@	c #D8D9D9",
",@	c #DCDDDC",
"'@	c #6B6B6A",
")@	c #EFEEED",
"!@	c #A5A5A5",
"~@	c #A6A6A7",
"{@	c #A2A2A3",
"]@	c #A1A2A2",
"^@	c #A1A0A1",
"/@	c #A0A0A0",
"(@	c #9F9FA0",
"_@	c #9E9E9F",
":@	c #9E9E9E",
"<@	c #9D9D9D",
"[@	c #A2A3A3",
"}@	c #A1A1A0",
"|@	c #B4B3B2",
"1@	c #DCDBDA",
"2@	c #969695",
"3@	c #727271",
"4@	c #706F6E",
"5@	c #707070",
"6@	c #70706F",
"7@	c #6C6C6B",
"8@	c #5F5F5F",
"9@	c #F5F4F3",
"0@	c #C9C8C7",
"a@	c #B0B0AE",
"b@	c #A7A7A6",
"c@	c #A8A8A7",
"d@	c #A8A8A8",
"e@	c #A9A8A8",
"f@	c #AAA8A8",
"g@	c #AAA9A8",
"h@	c #AAA9A9",
"i@	c #A9A9A9",
"j@	c #B3B3B2",
"k@	c #CDCDCC",
"l@	c #EDECEB",
"m@	c #D7D6D5",
"n@	c #F7F7F7",
"o@	c #F3F2F1",
"p@	c #F4F2F1",
"q@	c #F4F3F3",
". . . . . . . . . . . . . . . . . . . . . . . . . . . . . . . . ",
". . . . . . . . . . . . . . . . . . . . . . . . . . . . . . . . ",
". . . . . . . . . . . . . . . . . . . . . . . . . . . . . . . . ",
". . . . . . . . . . . . . . . . . . . . . . . . . . . . . . . . ",
". . . . . . . . . . . . . . . . . . . . . . . . . . . . . . . . ",
". . . . . . . . . . . . . . . . . . . . . . . . . . . . . . . . ",
"+ @ # $ % & * % = - - - = ; > , ' ' ' ' ' ' ' ' ' ' ' ' ' ' ' ) ",
"! ~ { ] ] ^ / ( _ : : < [ - } | 1 2 3 3 3 4 4 4 4 3 3 5 6 7 8 9 ",
"0 a b c d e f g h i j k l m n o p q r s r t u v w x y z A A u B ",
"C D E F G H I J K L M N @ O P Q R S T U V W s X S Y Z `  ...+.p ",
"@.#.$.%.G H &.*.=.L -.;.>.,.'.).S Y !.~.{.V u X ].^.`  ./.(.^._.",
":.<.[.%.G H }.|.1.L -.;.>.2.3.4.5.].!.6.{.R +.7.].8.9.0.a.b.Y 4.",
":.c.d.e.f.g.h.i.j.k.-.l.>.2.3.).].8.~.U +.m.n.o.p.q.r./.s.b.y 4.",
"t.u.v.w.x.y.z.A.B.C.D.E.F.2.3.G.h 9.{.s m.H.I.J.K.L.M.N.O.P.S _.",
"Q.R.S.F.T.U.V.W.X.Y.Z.`. +.+++r @+0.+.S ^.#+$+%+&+m.*+=+-+;+X >+",
"Q.,+'+)+!+~+{+]+^+/+-.;.(+2._+u :+<+[+^.Y }+|+1+2+3+4+4+5+5+6+7+",
"Q.,+'+)+!+8+{+]+^+9+-.;.>.2.0+q a+b+^.8.c+d+e+f+g+h+i+5+j+5+u 7+",
"Q.,+'+)+!+8+{+]+^+9+-.;.>.2.k+v q.*+9.:+l+}+m+n+o+p+q+r+s+5++.7+",
"Q.,+'+)+!+8+{+]+^+9+-.;.>.2.k+t+u+i+q.v+:+R L.w+a.A x+y+z+5+A+7+",
"Q.,+'+)+!+8+{+]+^+9+-.;.>.K.k+x <+B+C+D+E+O.B+w+r+j+F+G+H+(.V p.",
"I+,+'+)+!+8+{+]+^+9+-.;.>.J+k+y K+L+L.M+q+=+N+4+b.w+O+r+P+P.G.p.",
"! ).3.Q+!+R+S+T+U+V+-.W+X+Y+Z+`+ @.@r.r.r.q.q.q.q. . . .+@<+@@#@",
"$@%@<+&@;.*@=@-@;@-.>@,@H.'@)@q !@~@!.{@]@c+^@/@(@H._@:@<@[@}@|@",
")@1@2@3@4@5@5@5@5@5@6@7@8@G.9@0@a@b@c@c@d@d@e@f@e@e@f@g@h@i@j@k@",
"l@)@$@s+Q.Q.Q.Q.Q.Q.Q.Q.m@k+n@o@p@o@o@o@o@o@o@o@o@o@o@o@o@o@p@q@",
". . . . . . . . . . . . . . . . . . . . . . . . . . . . . . . . ",
". . . . . . . . . . . . . . . . . . . . . . . . . . . . . . . . ",
". . . . . . . . . . . . . . . . . . . . . . . . . . . . . . . . ",
". . . . . . . . . . . . . . . . . . . . . . . . . . . . . . . . ",
". . . . . . . . . . . . . . . . . . . . . . . . . . . . . . . . ",
". . . . . . . . . . . . . . . . . . . . . . . . . . . . . . . . ",
". . . . . . . . . . . . . . . . . . . . . . . . . . . . . . . . "};
